<?xml version="1.0" standalone="no"?>
<!DOCTYPE svg PUBLIC "-//W3C//DTD SVG 20010904//EN"
 "http://www.w3.org/TR/2001/REC-SVG-20010904/DTD/svg10.dtd">
<svg version="1.0" xmlns="http://www.w3.org/2000/svg"
 width="640.000000pt" height="640.000000pt" viewBox="0 0 640.000000 640.000000"
 preserveAspectRatio="xMidYMid meet">

<g transform="translate(0.000000,640.000000) scale(0.100000,-0.100000)"
fill="#000000" stroke="none">
<path d="M1225 5470 c-23 -44 -80 -251 -101 -365 -15 -79 -19 -149 -19 -335 1
-261 10 -348 58 -541 l33 -129 -64 -62 c-184 -181 -387 -494 -639 -985 l-73
-141 118 -110 c274 -257 534 -445 962 -695 52 -31 104 -63 115 -71 19 -15 19
-15 1 -16 -16 0 -189 52 -250 76 -38 15 -9 -15 118 -121 71 -59 165 -138 210
-176 119 -102 587 -428 635 -444 12 -3 65 -66 119 -138 113 -152 197 -239 323
-337 230 -177 444 -211 666 -106 151 72 343 245 489 441 75 101 98 125 145
150 30 17 105 66 165 111 60 44 165 118 234 164 69 46 163 113 210 149 106 82
344 281 348 292 2 4 -50 -10 -114 -31 -112 -38 -180 -51 -158 -31 5 5 99 62
209 126 367 216 624 404 869 637 105 100 119 117 113 138 -3 14 -55 107 -114
207 -59 100 -133 226 -164 280 -31 54 -109 171 -173 261 -64 90 -135 191 -158
225 -22 34 -66 93 -96 131 l-55 69 17 71 c86 372 96 675 30 996 -23 115 -74
287 -93 319 -18 29 -277 -124 -466 -276 -122 -98 -309 -290 -390 -401 l-60
-82 -45 6 c-25 3 -148 32 -275 64 -293 75 -358 87 -549 101 -264 21 -448 -1
-886 -106 -124 -30 -246 -57 -271 -60 l-45 -7 -59 79 c-89 118 -259 297 -362
383 -132 110 -390 280 -468 310 -22 8 -27 6 -40 -20z m1828 -3307 c-7 -2 -21
-2 -30 0 -10 3 -4 5 12 5 17 0 24 -2 18 -5z m275 0 c-10 -2 -28 -2 -40 0 -13
2 -5 4 17 4 22 1 32 -1 23 -4z m-355 -10 c-7 -2 -19 -2 -25 0 -7 3 -2 5 12 5
14 0 19 -2 13 -5z m455 0 c-10 -2 -26 -2 -35 0 -10 3 -2 5 17 5 19 0 27 -2 18
-5z m85 -10 c-7 -2 -19 -2 -25 0 -7 3 -2 5 12 5 14 0 19 -2 13 -5z m56 -17 c9
-11 9 -16 0 -22 -7 -4 -9 -3 -5 4 3 6 -2 15 -11 21 -10 6 -13 11 -7 11 6 0 17
-6 23 -14z m-747 -43 c-3 -16 -7 -22 -10 -15 -4 13 4 42 11 42 2 0 2 -12 -1
-27z m692 -58 c-14 -19 -29 -35 -31 -35 -5 0 7 18 36 53 26 31 23 18 -5 -18z
m-648 -42 c15 -20 23 -33 16 -29 -13 8 -56 66 -49 66 3 0 17 -17 33 -37z m614
-6 c0 -2 -10 -12 -22 -23 l-23 -19 19 23 c18 21 26 27 26 19z m-565 -57 c10
-11 16 -20 13 -20 -3 0 -13 9 -23 20 -10 11 -16 20 -13 20 3 0 13 -9 23 -20z
m525 7 c0 -2 -10 -12 -22 -23 l-23 -19 19 23 c18 21 26 27 26 19z m-464 -79
l29 -33 -32 29 c-31 28 -38 36 -30 36 2 0 16 -15 33 -32z m424 29 c0 -2 -10
-12 -22 -23 l-23 -19 19 23 c18 21 26 27 26 19z m-40 -51 c0 -2 -8 -10 -17
-17 -16 -13 -17 -12 -4 4 13 16 21 21 21 13z m-320 -51 c19 -19 32 -35 29 -35
-3 0 -20 16 -39 35 -19 19 -32 35 -29 35 3 0 20 -16 39 -35z m290 12 c0 -2
-15 -16 -32 -33 l-33 -29 29 33 c28 30 36 37 36 29z m-155 -147 c5 0 30 19 55
43 l45 42 -45 -47 c-24 -27 -49 -48 -55 -48 -6 0 -33 24 -60 53 l-50 52 50
-47 c28 -27 55 -48 60 -48z"/>
</g>
</svg>
