<svg xmlns="http://www.w3.org/2000/svg" viewBox="0 0 707.48 189.66"><defs><style>.cls-1{font-size:127px;font-family:ForteMT, Forte;}.cls-1,.cls-3{fill:#312783;}.cls-2{fill:#363634;}.cls-4{fill:#b1aca9;}</style></defs><title>racoon_devs</title><g id="Capa_1" data-name="Capa 1"><text class="cls-1" transform="translate(0 106.11)">Rac<tspan class="cls-2" x="198.31" y="0">oo</tspan><tspan x="335.98" y="0">n Devs</tspan></text><circle class="cls-3" cx="303.81" cy="78.83" r="7.55"/><circle class="cls-3" cx="233.67" cy="78.83" r="7.55"/></g><g id="Capa_2" data-name="Capa 2"><path class="cls-2" d="M370.86,309c.18,4.39-11.16,11-13.71,11-2,0-12.46-7.27-12.09-11.41.35-3.82,3.24-8.34,12.9-8.34C367.87,300.19,370.71,305.05,370.86,309Z" transform="translate(-92.52 -194.71)"/><path class="cls-2" d="M330.5,222.08s-21.84,8.38-37.61,22.17c0,0-1.41-36.9,8.21-41C309.13,199.85,330.5,222.08,330.5,222.08Z" transform="translate(-92.52 -194.71)"/><path class="cls-4" d="M317.63,228s-16.64,8.59-24.74,16.27c0,0-.62-28.65,3-32.59C305.23,201.42,317.63,228,317.63,228Z" transform="translate(-92.52 -194.71)"/><path class="cls-2" d="M394.37,221.59s21.45,9.35,36.57,23.85c0,0,3.08-36.81-6.35-41.33C416.72,200.34,394.37,221.59,394.37,221.59Z" transform="translate(-92.52 -194.71)"/><path class="cls-4" d="M407,228.06s16.24,9.33,24,17.38c0,0,1.91-28.6-1.51-32.7C420.55,202.09,407,228.06,407,228.06Z" transform="translate(-92.52 -194.71)"/></g></svg>